<?xml version="1.0" encoding="UTF-8" standalone="no"?>
<svg
   xmlns:dc="http://purl.org/dc/elements/1.1/"
   xmlns:cc="http://creativecommons.org/ns#"
   xmlns:rdf="http://www.w3.org/1999/02/22-rdf-syntax-ns#"
   xmlns:svg="http://www.w3.org/2000/svg"
   xmlns="http://www.w3.org/2000/svg"
   xmlns:sodipodi="http://sodipodi.sourceforge.net/DTD/sodipodi-0.dtd"
   xmlns:inkscape="http://www.inkscape.org/namespaces/inkscape"
   width="210mm"
   height="297mm"
   viewBox="0 0 210 297"
   version="1.1"
   id="svg8"
   inkscape:version="1.0.2 (e86c870879, 2021-01-15)"
   sodipodi:docname="Cactus.svg">
  <defs
     id="defs2">
    <style
       type="text/css"
       id="style28">
   
    .fil0 {fill:black}
   
  </style>
  </defs>
  <sodipodi:namedview
     id="base"
     pagecolor="#ffffff"
     bordercolor="#666666"
     borderopacity="1.0"
     inkscape:pageopacity="0.0"
     inkscape:pageshadow="2"
     inkscape:zoom="1.979899"
     inkscape:cx="396.85039"
     inkscape:cy="561.25984"
     inkscape:document-units="mm"
     inkscape:current-layer="g582"
     inkscape:document-rotation="0"
     showgrid="false"
     inkscape:window-width="1254"
     inkscape:window-height="720"
     inkscape:window-x="78"
     inkscape:window-y="721"
     inkscape:window-maximized="0" />
  <metadata
     id="metadata5">
    <rdf:RDF>
      <cc:Work
         rdf:about="">
        <dc:format>image/svg+xml</dc:format>
        <dc:type
           rdf:resource="http://purl.org/dc/dcmitype/StillImage" />
        <dc:title></dc:title>
      </cc:Work>
    </rdf:RDF>
  </metadata>
  <g
     inkscape:label="Layer 1"
     inkscape:groupmode="layer"
     id="layer1">
    <g
       id="g89"
       transform="matrix(0.26458333,0,0,0.26458333,-194.40196,-27.12882)">
      <text
         x="0"
         y="79.015999"
         fill="#000000"
         font-size="5px"
         font-weight="bold"
         font-family="'Helvetica Neue', Helvetica, Arial-Unicode, Arial, Sans-serif"
         id="text73"
         style="white-space:pre;inline-size:6.66169"
         xml:space="preserve"><tspan
           style="visibility:hidden"
           x="0"
           y="79.015999"><tspan
             dx="0 3.6108398 1.9458008 2.7807617 2.7807617 1.6650391 2.7807617 3.0541992 1.3891602 3.0541992 2.7807617 1.3891602 3.6108398 2.7807617 1.9458008 2.7807617 2.7807617 3.0541992 3.0541992">Created by Berkahon</tspan></tspan></text>
      <g
         id="g582"
         transform="translate(982.5391,522.62924)">
        <g
           id="g473">
          <path
             d="m 73.255,20.157 c -3.147,-0.161 -5.801,2.265 -5.954,5.401 -0.765,15.668 -4.567,19.853 -5.716,20.762 -0.833,0.661 -1.43,0.612 -1.589,0.583 0.14,0.025 -0.775,0.059 -1.402,0.079 L 59.05,17.308 c 0,-4.396 -3.562,-7.959 -7.959,-7.959 -4.396,0 -7.959,3.563 -7.959,7.959 l 0.681,44.413 c -0.64,-0.009 -1.488,-0.024 -1.418,-0.041 -0.179,0.043 -1.8,0.384 -3.504,-0.934 -1.684,-1.304 -5.628,-6.03 -5.898,-21.744 -0.053,-3.105 -2.587,-5.587 -5.682,-5.587 -0.033,0 -0.066,0 -0.1,10e-4 -3.139,0.053 -5.64,2.642 -5.586,5.781 0.267,15.554 3.899,25.952 10.798,30.906 3.359,2.412 6.727,3.009 9.234,3.009 0.905,0 1.688,-0.079 2.328,-0.177 l 0.284,18.562 h 13.643 l 0.511,-33.334 c 0.529,0.074 1.086,0.122 1.679,0.122 2.301,0 5.019,-0.621 7.599,-2.361 6.612,-4.456 10.196,-14.208 10.957,-29.812 0.153,-3.136 -2.266,-5.802 -5.403,-5.955 z"
             id="path289" />
          <g
             id="g303">
            <g
               id="g293">
              <path
                 d="M 43.208,22.375 H 41.38 c -0.078,0 -0.142,-0.064 -0.142,-0.142 0,-0.078 0.064,-0.142 0.142,-0.142 h 1.828 c 0.078,0 0.142,0.064 0.142,0.142 0,0.078 -0.064,0.142 -0.142,0.142 z"
                 id="path291" />
            </g>
            <g
               id="g297">
              <path
                 d="m 43.085,22.295 c -0.024,0 -0.049,-0.006 -0.071,-0.019 l -1.582,-0.914 c -0.068,-0.04 -0.091,-0.126 -0.052,-0.194 0.04,-0.069 0.126,-0.091 0.194,-0.052 l 1.582,0.914 c 0.068,0.04 0.091,0.126 0.052,0.194 -0.027,0.046 -0.074,0.071 -0.123,0.071 z"
                 id="path295" />
            </g>
            <g
               id="g301">
              <path
                 d="m 41.502,23.389 c -0.049,0 -0.097,-0.025 -0.123,-0.071 -0.039,-0.068 -0.016,-0.155 0.052,-0.194 l 1.583,-0.914 c 0.065,-0.038 0.154,-0.017 0.194,0.052 0.039,0.068 0.016,0.155 -0.052,0.194 l -1.583,0.914 c -0.022,0.013 -0.047,0.019 -0.071,0.019 z"
                 id="path299" />
            </g>
          </g>
          <g
             id="g317">
            <g
               id="g307">
              <path
                 d="M 46.729,10.692 45.783,9.128 c -0.04,-0.067 -0.019,-0.155 0.048,-0.195 0.067,-0.041 0.155,-0.019 0.195,0.048 l 0.945,1.564 c 0.041,0.066 0.019,0.154 -0.048,0.195 -0.067,0.041 -0.153,0.019 -0.194,-0.048 z"
                 id="path305" />
            </g>
            <g
               id="g311">
              <path
                 d="m 46.734,10.546 c -0.013,-0.021 -0.02,-0.045 -0.021,-0.07 L 46.676,8.649 c -0.001,-0.079 0.062,-0.144 0.139,-0.145 0.08,-10e-4 0.144,0.061 0.146,0.139 l 0.037,1.827 c 0.002,0.078 -0.061,0.143 -0.139,0.146 -0.053,-10e-4 -0.099,-0.029 -0.125,-0.07 z"
                 id="path309" />
            </g>
            <g
               id="g315">
              <path
                 d="M 44.979,9.757 C 44.954,9.715 44.951,9.661 44.977,9.615 45.015,9.547 45.101,9.521 45.17,9.559 l 1.601,0.882 c 0.067,0.036 0.094,0.123 0.056,0.193 -0.038,0.068 -0.125,0.093 -0.193,0.056 L 45.032,9.808 C 45.01,9.796 44.992,9.779 44.979,9.757 Z"
                 id="path313" />
            </g>
          </g>
          <g
             id="g331">
            <g
               id="g321">
              <path
                 d="m 29.706,34.143 0.638,-1.713 c 0.028,-0.073 0.109,-0.111 0.183,-0.083 0.074,0.027 0.111,0.109 0.083,0.183 l -0.638,1.712 c -0.027,0.073 -0.109,0.111 -0.183,0.084 -0.072,-0.028 -0.11,-0.11 -0.083,-0.183 z"
                 id="path319" />
            </g>
            <g
               id="g325">
              <path
                 d="m 29.824,34.056 c 0.008,-0.023 0.023,-0.043 0.042,-0.06 l 1.408,-1.165 c 0.061,-0.049 0.151,-0.041 0.201,0.02 0.05,0.062 0.041,0.15 -0.019,0.201 l -1.408,1.164 c -0.061,0.05 -0.15,0.041 -0.201,-0.019 -0.033,-0.042 -0.04,-0.095 -0.023,-0.141 z"
                 id="path323" />
            </g>
            <g
               id="g329">
              <path
                 d="m 29.352,32.19 c 0.017,-0.045 0.058,-0.082 0.11,-0.09 0.077,-0.013 0.15,0.04 0.164,0.117 l 0.304,1.802 c 0.013,0.075 -0.038,0.15 -0.117,0.165 -0.077,0.013 -0.151,-0.04 -0.164,-0.117 l -0.304,-1.803 c -0.005,-0.025 -0.002,-0.05 0.007,-0.074 z"
                 id="path327" />
            </g>
          </g>
          <g
             id="g345">
            <g
               id="g335">
              <path
                 d="m 59.069,17.833 h 1.828 c 0.078,0 0.142,-0.063 0.142,-0.142 0,-0.078 -0.063,-0.142 -0.142,-0.142 h -1.828 c -0.078,0 -0.142,0.064 -0.142,0.142 10e-4,0.079 0.064,0.142 0.142,0.142 z"
                 id="path333" />
            </g>
            <g
               id="g339">
              <path
                 d="m 59.192,17.753 c 0.024,0 0.049,-0.006 0.071,-0.019 l 1.582,-0.914 c 0.068,-0.039 0.091,-0.126 0.053,-0.194 -0.04,-0.069 -0.127,-0.091 -0.194,-0.052 l -1.583,0.914 c -0.067,0.04 -0.091,0.126 -0.052,0.194 0.027,0.046 0.075,0.071 0.123,0.071 z"
                 id="path337" />
            </g>
            <g
               id="g343">
              <path
                 d="m 60.774,18.847 c 0.05,0 0.099,-0.025 0.125,-0.071 0.037,-0.068 0.016,-0.155 -0.054,-0.194 l -1.583,-0.914 c -0.064,-0.038 -0.153,-0.017 -0.193,0.052 -0.04,0.068 -0.016,0.155 0.051,0.194 l 1.584,0.914 c 0.022,0.013 0.046,0.019 0.07,0.019 z"
                 id="path341" />
            </g>
          </g>
          <g
             id="g359">
            <g
               id="g349">
              <path
                 d="m 74.729,20.45 0.412,-1.78 c 0.018,-0.077 -0.031,-0.153 -0.106,-0.17 -0.077,-0.018 -0.153,0.029 -0.171,0.106 l -0.411,1.781 c -0.018,0.076 0.03,0.153 0.105,0.17 0.078,0.017 0.153,-0.031 0.171,-0.107 z"
                 id="path347" />
            </g>
            <g
               id="g353">
              <path
                 d="m 74.679,20.312 c 0.006,-0.023 0.006,-0.049 -0.003,-0.073 L 74.143,18.492 C 74.12,18.417 74.04,18.375 73.965,18.397 73.89,18.42 73.848,18.501 73.87,18.575 l 0.534,1.747 c 0.022,0.075 0.103,0.118 0.178,0.095 0.05,-0.017 0.086,-0.058 0.097,-0.105 z"
                 id="path351" />
            </g>
            <g
               id="g357">
              <path
                 d="m 76.1,19.016 c 0.012,-0.048 -0.002,-0.101 -0.041,-0.137 -0.057,-0.051 -0.146,-0.05 -0.201,0.008 l -1.246,1.337 c -0.053,0.055 -0.052,0.146 0.008,0.2 0.057,0.054 0.146,0.05 0.2,-0.006 l 1.247,-1.336 c 0.016,-0.019 0.029,-0.042 0.033,-0.066 z"
                 id="path355" />
            </g>
          </g>
          <g
             id="g373">
            <g
               id="g363">
              <path
                 d="m 58.664,32.401 h 1.828 c 0.078,0 0.142,-0.064 0.142,-0.142 0,-0.078 -0.063,-0.142 -0.142,-0.142 h -1.828 c -0.078,0 -0.142,0.064 -0.142,0.142 0,0.078 0.064,0.142 0.142,0.142 z"
                 id="path361" />
            </g>
            <g
               id="g367">
              <path
                 d="m 58.787,32.321 c 0.024,0 0.049,-0.006 0.071,-0.019 l 1.582,-0.914 c 0.068,-0.04 0.091,-0.126 0.053,-0.194 -0.04,-0.069 -0.127,-0.091 -0.194,-0.052 l -1.583,0.914 c -0.067,0.04 -0.091,0.126 -0.052,0.194 0.026,0.045 0.074,0.071 0.123,0.071 z"
                 id="path365" />
            </g>
            <g
               id="g371">
              <path
                 d="m 60.369,33.415 c 0.049,0 0.099,-0.025 0.125,-0.071 0.037,-0.068 0.016,-0.155 -0.054,-0.194 l -1.583,-0.914 c -0.064,-0.038 -0.153,-0.017 -0.193,0.052 -0.04,0.068 -0.016,0.155 0.051,0.194 l 1.584,0.914 c 0.021,0.013 0.046,0.019 0.07,0.019 z"
                 id="path369" />
            </g>
          </g>
          <g
             id="g387">
            <g
               id="g377">
              <path
                 d="m 58.663,39.775 h 1.827 c 0.079,0 0.143,-0.064 0.143,-0.142 0,-0.079 -0.063,-0.142 -0.143,-0.142 h -1.827 c -0.078,0 -0.143,0.063 -0.143,0.142 10e-4,0.078 0.065,0.142 0.143,0.142 z"
                 id="path375" />
            </g>
            <g
               id="g381">
              <path
                 d="m 58.786,39.695 c 0.024,0 0.049,-0.006 0.071,-0.019 l 1.582,-0.914 c 0.067,-0.04 0.091,-0.126 0.053,-0.194 -0.04,-0.069 -0.127,-0.091 -0.194,-0.052 l -1.583,0.914 c -0.067,0.04 -0.091,0.127 -0.052,0.194 0.026,0.045 0.074,0.071 0.123,0.071 z"
                 id="path379" />
            </g>
            <g
               id="g385">
              <path
                 d="m 60.368,40.789 c 0.049,0 0.098,-0.025 0.125,-0.071 0.037,-0.067 0.016,-0.155 -0.054,-0.194 L 58.856,39.61 c -0.064,-0.039 -0.153,-0.017 -0.193,0.052 -0.04,0.067 -0.016,0.155 0.051,0.194 l 1.584,0.914 c 0.021,0.012 0.046,0.019 0.07,0.019 z"
                 id="path383" />
            </g>
          </g>
          <g
             id="g401">
            <g
               id="g391">
              <path
                 d="m 58.014,67.952 h 1.827 c 0.079,0 0.143,-0.064 0.143,-0.143 0,-0.077 -0.063,-0.142 -0.143,-0.142 h -1.827 c -0.078,0 -0.143,0.064 -0.143,0.142 0,0.079 0.065,0.143 0.143,0.143 z"
                 id="path389" />
            </g>
            <g
               id="g395">
              <path
                 d="m 58.137,67.872 c 0.024,0 0.049,-0.007 0.071,-0.019 l 1.582,-0.914 c 0.067,-0.04 0.091,-0.127 0.052,-0.194 -0.04,-0.068 -0.126,-0.091 -0.194,-0.052 l -1.582,0.913 c -0.067,0.039 -0.091,0.127 -0.052,0.194 0.026,0.047 0.074,0.072 0.123,0.072 z"
                 id="path393" />
            </g>
            <g
               id="g399">
              <path
                 d="m 59.719,68.966 c 0.049,0 0.098,-0.025 0.125,-0.071 0.037,-0.067 0.015,-0.154 -0.054,-0.194 l -1.583,-0.913 c -0.064,-0.039 -0.153,-0.018 -0.193,0.052 -0.04,0.067 -0.016,0.155 0.051,0.194 l 1.583,0.914 c 0.022,0.012 0.046,0.018 0.071,0.018 z"
                 id="path397" />
            </g>
          </g>
          <g
             id="g415">
            <g
               id="g405">
              <path
                 d="m 33.821,50.298 1.806,-0.276 c 0.078,-0.012 0.131,-0.085 0.119,-0.162 -0.012,-0.077 -0.084,-0.132 -0.162,-0.119 l -1.807,0.276 c -0.077,0.013 -0.131,0.086 -0.119,0.162 0.012,0.076 0.086,0.131 0.163,0.119 z"
                 id="path403" />
            </g>
            <g
               id="g409">
              <path
                 d="m 33.931,50.2 c 0.024,-0.004 0.047,-0.014 0.067,-0.029 l 1.426,-1.143 c 0.061,-0.05 0.071,-0.139 0.022,-0.2 -0.05,-0.062 -0.139,-0.07 -0.2,-0.021 L 33.82,49.95 c -0.061,0.048 -0.071,0.139 -0.022,0.199 0.033,0.04 0.084,0.059 0.133,0.051 z"
                 id="path407" />
            </g>
            <g
               id="g413">
              <path
                 d="m 35.66,51.041 c 0.048,-0.006 0.093,-0.039 0.112,-0.088 0.027,-0.072 -0.008,-0.155 -0.082,-0.185 l -1.703,-0.663 c -0.07,-0.029 -0.154,0.007 -0.184,0.08 -0.029,0.073 0.008,0.156 0.08,0.185 l 1.703,0.664 c 0.024,0.01 0.049,0.012 0.074,0.007 z"
                 id="path411" />
            </g>
          </g>
          <g
             id="g429">
            <g
               id="g419">
              <path
                 d="m 78.081,32.033 1.777,0.425 c 0.077,0.018 0.153,-0.029 0.171,-0.105 0.018,-0.076 -0.028,-0.153 -0.105,-0.171 l -1.777,-0.424 c -0.076,-0.018 -0.153,0.029 -0.171,0.105 -0.018,0.075 0.029,0.152 0.105,0.17 z"
                 id="path417" />
            </g>
            <g
               id="g423">
              <path
                 d="m 78.22,31.984 c 0.023,0.006 0.049,0.005 0.073,-0.002 l 1.751,-0.521 c 0.074,-0.023 0.117,-0.102 0.096,-0.177 -0.022,-0.076 -0.103,-0.118 -0.177,-0.095 l -1.751,0.521 c -0.075,0.023 -0.118,0.103 -0.097,0.177 0.016,0.049 0.057,0.085 0.105,0.097 z"
                 id="path421" />
            </g>
            <g
               id="g427">
              <path
                 d="m 79.504,33.415 c 0.048,0.012 0.102,-10e-4 0.138,-0.04 0.053,-0.057 0.052,-0.147 -0.006,-0.201 l -1.328,-1.256 c -0.055,-0.052 -0.146,-0.052 -0.2,0.006 -0.056,0.057 -0.051,0.146 0.005,0.201 l 1.327,1.257 c 0.018,0.015 0.039,0.027 0.064,0.033 z"
                 id="path425" />
            </g>
          </g>
          <g
             id="g443">
            <g
               id="g433">
              <path
                 d="m 74.908,45.434 1.71,0.646 c 0.073,0.027 0.155,-0.01 0.184,-0.083 0.026,-0.073 -0.01,-0.156 -0.083,-0.184 l -1.71,-0.645 c -0.072,-0.028 -0.156,0.009 -0.184,0.083 -0.026,0.074 0.011,0.156 0.083,0.183 z"
                 id="path431" />
            </g>
            <g
               id="g437">
              <path
                 d="m 75.053,45.403 c 0.022,0.009 0.048,0.011 0.072,0.007 l 1.804,-0.296 c 0.076,-0.013 0.13,-0.086 0.116,-0.164 -0.013,-0.078 -0.086,-0.129 -0.162,-0.117 l -1.804,0.296 c -0.077,0.013 -0.13,0.086 -0.117,0.163 0.009,0.053 0.044,0.094 0.091,0.111 z"
                 id="path435" />
            </g>
            <g
               id="g441">
              <path
                 d="m 76.146,46.985 c 0.046,0.018 0.1,0.011 0.141,-0.022 0.06,-0.05 0.07,-0.139 0.02,-0.201 l -1.158,-1.414 c -0.048,-0.059 -0.138,-0.069 -0.2,-0.019 -0.062,0.049 -0.068,0.139 -0.02,0.199 l 1.158,1.415 c 0.016,0.019 0.036,0.034 0.059,0.042 z"
                 id="path439" />
            </g>
          </g>
          <g
             id="g457">
            <g
               id="g447">
              <path
                 d="M 43.598,45.817 H 41.77 c -0.078,0 -0.142,-0.064 -0.142,-0.142 0,-0.079 0.064,-0.142 0.142,-0.142 h 1.828 c 0.079,0 0.142,0.063 0.142,0.142 0,0.078 -0.063,0.142 -0.142,0.142 z"
                 id="path445" />
            </g>
            <g
               id="g451">
              <path
                 d="m 43.476,45.737 c -0.024,0 -0.049,-0.006 -0.071,-0.019 l -1.583,-0.914 c -0.068,-0.04 -0.091,-0.126 -0.052,-0.194 0.04,-0.069 0.126,-0.091 0.194,-0.052 l 1.583,0.914 c 0.067,0.039 0.091,0.126 0.052,0.194 -0.027,0.046 -0.075,0.071 -0.123,0.071 z"
                 id="path449" />
            </g>
            <g
               id="g455">
              <path
                 d="m 41.893,46.831 c -0.049,0 -0.096,-0.025 -0.123,-0.071 -0.039,-0.067 -0.016,-0.155 0.052,-0.194 l 1.583,-0.914 c 0.065,-0.038 0.154,-0.017 0.194,0.052 0.039,0.068 0.015,0.155 -0.052,0.194 l -1.583,0.914 c -0.022,0.013 -0.047,0.019 -0.071,0.019 z"
                 id="path453" />
            </g>
          </g>
          <g
             id="g471">
            <g
               id="g461">
              <path
                 d="m 21.857,45.398 -1.805,0.285 c -0.077,0.012 -0.15,-0.042 -0.163,-0.119 -0.012,-0.078 0.041,-0.15 0.118,-0.163 l 1.805,-0.284 c 0.078,-0.012 0.151,0.041 0.163,0.118 0.013,0.079 -0.041,0.152 -0.118,0.163 z"
                 id="path459" />
            </g>
            <g
               id="g465">
              <path
                 d="m 21.723,45.339 c -0.024,0.003 -0.049,0.001 -0.073,-0.008 l -1.705,-0.657 c -0.073,-0.028 -0.11,-0.111 -0.083,-0.184 0.029,-0.074 0.111,-0.109 0.184,-0.082 l 1.706,0.657 c 0.073,0.029 0.109,0.111 0.082,0.185 -0.019,0.049 -0.063,0.082 -0.111,0.089 z"
                 id="path463" />
            </g>
            <g
               id="g469">
              <path
                 d="m 20.33,46.665 c -0.048,0.008 -0.099,-0.01 -0.132,-0.051 -0.049,-0.061 -0.04,-0.15 0.021,-0.2 l 1.422,-1.148 c 0.059,-0.048 0.149,-0.04 0.2,0.021 0.049,0.061 0.04,0.15 -0.021,0.2 l -1.422,1.149 c -0.021,0.016 -0.044,0.026 -0.068,0.029 z"
                 id="path467" />
            </g>
          </g>
        </g>
      </g>
    </g>
  </g>
</svg>
