<?xml version="1.0" encoding="UTF-8" standalone="no"?>
<svg
   xmlns:dc="http://purl.org/dc/elements/1.1/"
   xmlns:cc="http://creativecommons.org/ns#"
   xmlns:rdf="http://www.w3.org/1999/02/22-rdf-syntax-ns#"
   xmlns:svg="http://www.w3.org/2000/svg"
   xmlns="http://www.w3.org/2000/svg"
   xmlns:sodipodi="http://sodipodi.sourceforge.net/DTD/sodipodi-0.dtd"
   xmlns:inkscape="http://www.inkscape.org/namespaces/inkscape"
   width="210mm"
   height="297mm"
   viewBox="0 0 210 297"
   version="1.1"
   id="svg8"
   inkscape:version="1.0.2 (e86c870879, 2021-01-15)"
   sodipodi:docname="Flask.svg">
  <defs
     id="defs2">
    <style
       type="text/css"
       id="style28">
   
    .fil0 {fill:black}
   
  </style>
  </defs>
  <sodipodi:namedview
     id="base"
     pagecolor="#ffffff"
     bordercolor="#666666"
     borderopacity="1.0"
     inkscape:pageopacity="0.0"
     inkscape:pageshadow="2"
     inkscape:zoom="1.979899"
     inkscape:cx="396.85039"
     inkscape:cy="561.25984"
     inkscape:document-units="mm"
     inkscape:current-layer="g620"
     inkscape:document-rotation="0"
     showgrid="false"
     inkscape:window-width="1254"
     inkscape:window-height="720"
     inkscape:window-x="78"
     inkscape:window-y="721"
     inkscape:window-maximized="0" />
  <metadata
     id="metadata5">
    <rdf:RDF>
      <cc:Work
         rdf:about="">
        <dc:format>image/svg+xml</dc:format>
        <dc:type
           rdf:resource="http://purl.org/dc/dcmitype/StillImage" />
        <dc:title></dc:title>
      </cc:Work>
    </rdf:RDF>
  </metadata>
  <g
     inkscape:label="Layer 1"
     inkscape:groupmode="layer"
     id="layer1">
    <g
       id="g89"
       transform="matrix(0.26458333,0,0,0.26458333,-194.40196,-27.12882)">
      <text
         x="0"
         y="79.015999"
         fill="#000000"
         font-size="5px"
         font-weight="bold"
         font-family="'Helvetica Neue', Helvetica, Arial-Unicode, Arial, Sans-serif"
         id="text73"
         style="white-space:pre;inline-size:6.66169"
         xml:space="preserve"><tspan
           style="visibility:hidden"
           x="0"
           y="79.015999"><tspan
             dx="0 3.6108398 1.9458008 2.7807617 2.7807617 1.6650391 2.7807617 3.0541992 1.3891602 3.0541992 2.7807617 1.3891602 3.6108398 2.7807617 1.9458008 2.7807617 2.7807617 3.0541992 3.0541992">Created by Berkahon</tspan></tspan></text>
      <g
         id="g582"
         transform="translate(982.5391,522.62924)">
        <g
           id="g620"
           transform="translate(70.130605,93.196177)">
          <path
             d="m 34.976563,36.994141 c -8.871583,5.263672 -14.382325,14.927734 -14.382325,25.219726 0,12.522461 7.965332,23.666992 19.821289,27.732422 C 40.520019,89.981445 40.629394,90 40.739746,90 h 18.399902 c 0.110352,0 0.219727,-0.01856 0.324219,-0.05371 11.855957,-4.06543 19.821289,-15.209961 19.821289,-27.732422 0,-0.172302 -0.0141,-0.342712 -0.01715,-0.514648 0.0026,-0.02948 0.01715,-0.05481 0.01715,-0.08496 0,-0.04205 -0.01892,-0.07782 -0.02393,-0.11853 C 79.010925,51.474792 73.5672,42.134827 64.90332,36.994141 61.130371,34.756836 58.786621,30.713867 58.786621,26.442383 v -9.341797 c 1.526367,-0.344727 2.728027,-1.599609 2.881836,-3.135742 C 61.770019,12.950195 61.437988,11.9375 60.757812,11.185547 60.076172,10.431641 59.102539,10 58.086914,10 H 41.938965 c -1.90918,0 -3.546875,1.418945 -3.728027,3.230469 -0.101563,1.014648 0.230468,2.027344 0.910644,2.779297 0.522949,0.578125 1.217773,0.966797 1.971191,1.116211 v 9.316406 c 0,4.270508 -2.34375,8.314453 -6.11621,10.551758 z M 58.97168,88 H 40.907715 C 29.946289,84.168945 22.594238,73.827148 22.594238,62.213867 c 0,-2.549866 0.37323,-5.054993 1.061768,-7.456055 h 52.567383 c 0.543884,1.89679 0.889282,3.858094 1.008422,5.856446 H 60.833984 c -0.552246,0 -1,0.447265 -1,1 0,0.552734 0.447754,1 1,1 h 16.435364 c -0.02777,1.894714 -0.250793,3.752258 -0.653259,5.552734 H 64.807617 c -0.552246,0 -1,0.447266 -1,1 0,0.552735 0.447754,1 1,1 H 76.08783 c -0.493287,1.617737 -1.132019,3.176758 -1.907044,4.66211 H 62.068359 c -0.552246,0 -1,0.447265 -1,1 0,0.552734 0.447754,1 1,1 H 73.022217 C 69.797852,81.910217 64.92395,85.919678 58.97168,88 Z M 42.092773,15.195312 H 41.79248 c -0.45166,0 -0.884277,-0.192382 -1.1875,-0.527343 C 40.29834,14.329102 40.154785,13.889648 40.201172,13.429687 40.28125,12.62793 41.044434,12 41.938965,12 h 16.147949 c 0.45166,0 0.884766,0.192383 1.1875,0.527344 0.306641,0.338867 0.450195,0.77832 0.403809,1.238281 -0.08008,0.801758 -0.843262,1.429687 -1.737793,1.429687 h -0.153809 c -0.552246,0 -1,0.447266 -1,1.000001 v 10.24707 c 0,4.973633 2.719238,9.675781 7.096191,12.272461 5.449707,3.233581 9.525635,8.253479 11.679505,14.042969 H 24.317078 c 2.154052,-5.789795 6.230224,-10.809998 11.679992,-14.042969 4.376953,-2.59668 7.095703,-7.298828 7.095703,-12.272461 v -10.24707 c 0,-0.552735 -0.447754,-1.000001 -1,-1.000001 z"
             id="path600" />
          <path
             d="m 59.437988,68.166992 h -4.296386 c -0.552246,0 -1,0.447266 -1,1 0,0.552735 0.447754,1 1,1 h 4.296386 c 0.552246,0 1,-0.447265 1,-1 0,-0.552734 -0.447754,-1 -1,-1 z"
             id="path602" />
        </g>
      </g>
    </g>
  </g>
</svg>
