<?xml version="1.0" encoding="UTF-8" standalone="no"?>
<svg
   xmlns:dc="http://purl.org/dc/elements/1.1/"
   xmlns:cc="http://creativecommons.org/ns#"
   xmlns:rdf="http://www.w3.org/1999/02/22-rdf-syntax-ns#"
   xmlns:svg="http://www.w3.org/2000/svg"
   xmlns="http://www.w3.org/2000/svg"
   xmlns:sodipodi="http://sodipodi.sourceforge.net/DTD/sodipodi-0.dtd"
   xmlns:inkscape="http://www.inkscape.org/namespaces/inkscape"
   width="210mm"
   height="297mm"
   viewBox="0 0 210 297"
   version="1.1"
   id="svg8"
   inkscape:version="1.0.2 (e86c870879, 2021-01-15)"
   sodipodi:docname="Gun.svg">
  <defs
     id="defs2">
    <style
       type="text/css"
       id="style28">
   
    .fil0 {fill:black}
   
  </style>
  </defs>
  <sodipodi:namedview
     id="base"
     pagecolor="#ffffff"
     bordercolor="#666666"
     borderopacity="1.0"
     inkscape:pageopacity="0.0"
     inkscape:pageshadow="2"
     inkscape:zoom="0.35"
     inkscape:cx="400"
     inkscape:cy="560"
     inkscape:document-units="mm"
     inkscape:current-layer="layer1"
     inkscape:document-rotation="0"
     showgrid="false"
     inkscape:window-width="1254"
     inkscape:window-height="720"
     inkscape:window-x="78"
     inkscape:window-y="721"
     inkscape:window-maximized="0" />
  <metadata
     id="metadata5">
    <rdf:RDF>
      <cc:Work
         rdf:about="">
        <dc:format>image/svg+xml</dc:format>
        <dc:type
           rdf:resource="http://purl.org/dc/dcmitype/StillImage" />
        <dc:title></dc:title>
      </cc:Work>
    </rdf:RDF>
  </metadata>
  <g
     inkscape:label="Layer 1"
     inkscape:groupmode="layer"
     id="layer1">
    <g
       style="clip-rule:evenodd;fill-rule:evenodd;image-rendering:optimizeQuality;shape-rendering:geometricPrecision;text-rendering:geometricPrecision"
       id="g51"
       transform="matrix(0.26458333,0,0,0.26458333,-111.59388,3.4287053)">
      <g
         id="g34">
        <path
           class="fil0"
           d="m 14.62,273.6 c 0,0 59.7,0 68.57,0 8.87,0 10.39,-6.87 12.07,-17.87 1.68,-11 23.03,-69.31 26.22,-74.88 3.36,-5.87 14.79,2.15 24.49,2.15 9.87,0 30.3,0 37.68,0 9.87,0 22.53,-9.47 22.53,-18.87 0,-9.39 0,-9.15 0,-15.28 0,-6.13 4.94,-10.11 14.17,-10.11 9.23,0 71.35,0 81.61,0 10.27,0 13.02,-7.16 13.02,-13.17 0,-6.01 0,-26.09 0,-26.09 H 329.2 V 72.37 H 68.13 L 53.91,59.7 H 45.69 L 40.34,84.09 H 26.77 v 24.88 c 0,0 -12.46,9.5 -7.78,15.42 4.68,5.92 20.92,-0.57 26.08,9.36 5.16,9.94 3.73,33.34 -13.47,61.42 -17.19,28.09 -27.51,40.89 -27.51,59.8 0,18.91 2.53,18.77 10.5,18.63 z M 146.71,134.11 c -0.66,20.24 10.54,29.73 14.26,27.11 2.62,-1.85 -0.05,-13.35 1.99,-22.09 0.47,-2.03 2.2,-3.81 3.91,-5.33 h 10.48 c 24.44,0 24.44,36.96 0,36.96 H 150.4 c -23.14,0 -24.37,-33.12 -3.69,-36.65 z"
           id="path32" />
      </g>
    </g>
  </g>
</svg>
