<?xml version="1.0" encoding="UTF-8" standalone="no"?>
<svg
   xmlns:dc="http://purl.org/dc/elements/1.1/"
   xmlns:cc="http://creativecommons.org/ns#"
   xmlns:rdf="http://www.w3.org/1999/02/22-rdf-syntax-ns#"
   xmlns:svg="http://www.w3.org/2000/svg"
   xmlns="http://www.w3.org/2000/svg"
   xmlns:sodipodi="http://sodipodi.sourceforge.net/DTD/sodipodi-0.dtd"
   xmlns:inkscape="http://www.inkscape.org/namespaces/inkscape"
   width="210mm"
   height="297mm"
   viewBox="0 0 210 297"
   version="1.1"
   id="svg8"
   inkscape:version="1.0.2 (e86c870879, 2021-01-15)"
   sodipodi:docname="HazmatSuit.svg">
  <defs
     id="defs2">
    <style
       type="text/css"
       id="style28">
   
    .fil0 {fill:black}
   
  </style>
  </defs>
  <sodipodi:namedview
     id="base"
     pagecolor="#ffffff"
     bordercolor="#666666"
     borderopacity="1.0"
     inkscape:pageopacity="0.0"
     inkscape:pageshadow="2"
     inkscape:zoom="1.979899"
     inkscape:cx="-490.38905"
     inkscape:cy="-62.51474"
     inkscape:document-units="mm"
     inkscape:current-layer="g89"
     inkscape:document-rotation="0"
     showgrid="false"
     inkscape:window-width="1254"
     inkscape:window-height="720"
     inkscape:window-x="78"
     inkscape:window-y="721"
     inkscape:window-maximized="0" />
  <metadata
     id="metadata5">
    <rdf:RDF>
      <cc:Work
         rdf:about="">
        <dc:format>image/svg+xml</dc:format>
        <dc:type
           rdf:resource="http://purl.org/dc/dcmitype/StillImage" />
        <dc:title></dc:title>
      </cc:Work>
    </rdf:RDF>
  </metadata>
  <g
     inkscape:label="Layer 1"
     inkscape:groupmode="layer"
     id="layer1">
    <g
       id="g89"
       transform="matrix(0.26458333,0,0,0.26458333,-194.40196,-27.12882)">
      <g
         id="g71">
        <path
           d="M 53.404,36.631 47.008,34.3 V 15 c 0,-8.271 -6.729,-15 -15,-15 -8.271,0 -15,6.729 -15,15 v 19.3 l -6.396,2.331 c -2.753,1.002 -4.604,3.646 -4.604,6.577 v 19.808 c 0,0.552 0.448,1 1,1 h 50 c 0.552,0 1,-0.448 1,-1 V 43.208 c 0,-2.932 -1.85,-5.575 -4.604,-6.577 z M 32.008,2 c 7.168,0 13,5.832 13,13 v 19.42 l -0.594,0.34 c -3.529,2.018 -7.452,3.094 -11.406,3.252 v -6.054 c 5.046,-0.503 9,-4.773 9,-9.949 V 18.31 c 0.749,-1.137 1.103,-2.509 0.972,-3.887 -0.29,-3.036 -3.007,-5.414 -6.187,-5.414 h -9.57 c -3.18,0 -5.897,2.378 -6.187,5.414 -0.131,1.378 0.223,2.749 0.972,3.887 v 3.699 c 0,5.177 3.954,9.446 9,9.949 v 6.055 c -3.955,-0.156 -7.88,-1.23 -11.41,-3.247 l -0.59,-0.337 V 15 c 0,-7.168 5.831,-13 13,-13 z m 7.96,15.698 c -0.757,0.833 -1.836,1.31 -2.96,1.31 h -1 c -0.74,0 -1.451,-0.272 -2.001,-0.765 -0.57,-0.511 -1.284,-0.766 -1.999,-0.766 -0.715,0 -1.429,0.255 -1.999,0.766 -0.551,0.493 -1.262,0.765 -2.001,0.765 h -1 c -1.125,0 -2.204,-0.478 -2.96,-1.31 -0.768,-0.844 -1.13,-1.94 -1.021,-3.086 0.193,-2.021 2.036,-3.604 4.196,-3.604 h 9.57 c 2.16,0 4.003,1.583 4.196,3.604 0.109,1.146 -0.253,2.242 -1.021,3.086 z m -15.96,2.503 c 0.904,0.522 1.938,0.807 3,0.807 h 1 c 1.233,0 2.418,-0.453 3.336,-1.276 0.378,-0.339 0.949,-0.339 1.327,0 0.918,0.823 2.104,1.276 3.336,1.276 h 1 c 1.062,0 2.096,-0.285 3,-0.807 v 1.807 c 0,4.411 -3.589,8 -8,8 -4.411,0 -8,-3.589 -8,-8 v -1.807 z m -16,23.007 c 0,-2.094 1.321,-3.981 3.288,-4.698 l 6.61,-2.409 0.7,0.4 c 3.836,2.192 8.103,3.353 12.402,3.51 v 22.005 h -13 V 51.008 c 0,-0.552 -0.448,-1 -1,-1 -0.552,0 -1,0.448 -1,1 v 11.008 h -8 z m 48,18.808 h -8 V 51.008 c 0,-0.552 -0.448,-1 -1,-1 -0.552,0 -1,0.448 -1,1 v 11.008 h -13 V 40.01 c 4.297,-0.159 8.565,-1.321 12.399,-3.515 l 0.695,-0.397 6.618,2.411 c 1.967,0.716 3.288,2.604 3.288,4.698 z"
           id="path69" />
      </g>
      <text
         x="0"
         y="79.015999"
         fill="#000000"
         font-size="5px"
         font-weight="bold"
         font-family="'Helvetica Neue', Helvetica, Arial-Unicode, Arial, Sans-serif"
         id="text73"
         style="white-space:pre;inline-size:6.66169"
         xml:space="preserve"><tspan
           style="visibility:hidden"
           x="0"
           y="79.015999"><tspan
             dx="0 3.6108398 1.9458008 2.7807617 2.7807617 1.6650391 2.7807617 3.0541992 1.3891602 3.0541992 2.7807617 1.3891602 3.6108398 2.7807617 1.9458008 2.7807617 2.7807617 3.0541992 3.0541992">Created by Berkahon</tspan></tspan></text>
    </g>
  </g>
</svg>
